<svg xmlns="http://www.w3.org/2000/svg" version="1.0" width="289" height="289" viewBox="0 0 289 289" preserveAspectRatio="xMidYMid meet"><rect id="svg_border_rect" x="1.5" y="1.5" width="286" height="286" fill="none" stroke="#000000" stroke-width="3"/><g id="svg_border_group" transform="translate(10,10)"><g xmlns:default="http://www.w3.org/2000/svg" transform="translate(0.000000,269.000000) scale(0.100000,-0.100000)" fill="#193e20" stroke="none"><path d="M955 2600 c-361 -64 -620 -282 -704 -591 -26 -95 -28 -123 -12 -182 14 -47 13 -48 -20 -95 -18 -26 -71 -93 -117 -150 -94 -117 -130 -185 -78 -146 11 8 17 14 13 14 -7 0 6 16 66 84 63 72 167 216 172 241 3 11 -1 40 -8 65 -17 54 -3 144 37 233 14 32 26 64 26 72 0 8 3 15 8 15 4 0 13 14 21 31 19 44 71 101 200 218 14 13 38 28 54 33 15 6 27 14 27 20 0 5 5 6 10 3 6 -3 10 -2 10 3 0 5 14 12 31 16 20 4 28 10 23 17 -4 7 -3 9 3 6 5 -3 50 9 100 27 57 20 97 30 105 25 9 -6 6 -9 -9 -9 -13 0 -23 -4 -23 -8 0 -5 -19 -18 -42 -30 -24 -11 -64 -40 -90 -64 -26 -24 -62 -57 -80 -74 -50 -46 -87 -91 -81 -98 4 -3 1 -6 -5 -6 -11 0 -82 -110 -86 -133 -1 -7 -9 -25 -18 -42 -28 -53 -50 -128 -62 -215 -12 -85 -14 -329 -2 -348 3 -5 8 -31 11 -57 3 -26 12 -66 20 -89 7 -22 17 -58 20 -78 4 -21 11 -38 16 -38 5 0 8 -3 8 -7 -1 -5 0 -12 1 -18 1 -5 3 -14 4 -20 3 -23 65 -131 85 -149 11 -10 18 -23 15 -27 -3 -5 -1 -9 5 -9 6 0 17 -15 26 -34 9 -18 24 -42 33 -53 21 -24 39 -53 70 -118 19 -39 24 -65 24 -125 0 -79 -9 -189 -18 -230 -3 -14 -7 -47 -9 -73 -3 -26 -7 -52 -10 -56 -2 -5 -22 9 -44 30 l-39 39 -163 1 c-90 1 -180 3 -199 3 -34 2 -145 54 -135 64 3 3 -1 12 -7 20 -20 23 -19 44 7 116 32 88 32 140 2 180 -28 37 -40 66 -28 66 5 0 14 14 20 31 12 34 2 62 -29 88 -16 13 -15 17 3 54 10 22 22 65 26 94 7 50 6 56 -23 89 -24 27 -41 37 -75 41 -35 5 -43 3 -39 -8 3 -8 21 -18 41 -24 20 -6 47 -20 59 -32 21 -21 21 -24 8 -79 -8 -31 -24 -72 -36 -90 l-23 -33 35 -26 c41 -31 44 -62 9 -95 l-25 -24 24 -25 c54 -59 58 -101 21 -211 -14 -40 -25 -81 -25 -89 0 -26 58 -90 103 -114 39 -20 58 -22 246 -25 140 -2 207 -7 215 -15 29 -31 38 -50 55 -118 11 -41 21 -67 24 -59 14 43 57 418 57 495 -1 110 -20 163 -106 288 -151 222 -195 329 -228 547 -37 246 9 501 124 679 117 181 345 347 545 397 l50 12 -60 0 c-33 0 -105 -8 -160 -18z"/><path d="M1614 2611 c4 -6 14 -11 22 -11 31 0 167 -61 237 -106 324 -210 470 -572 396 -984 -36 -201 -80 -309 -189 -465 -35 -49 -81 -126 -103 -169 l-40 -80 6 -125 c4 -109 37 -384 54 -461 5 -20 9 -11 24 44 10 38 26 81 37 95 l19 26 209 5 c207 5 209 5 261 34 36 20 58 41 74 71 l23 43 -27 78 c-39 116 -36 156 19 215 l24 25 -25 24 c-33 31 -32 63 5 93 35 30 35 31 11 65 -23 33 -45 124 -36 150 3 11 21 27 40 37 19 9 35 22 35 30 0 18 -4 19 -38 1 -53 -27 -65 -50 -59 -108 7 -65 10 -77 25 -105 15 -27 15 -38 0 -55 -38 -39 -39 -43 -22 -96 16 -48 16 -52 -1 -68 -38 -38 -46 -106 -19 -169 15 -36 27 -101 26 -137 -1 -23 -35 -55 -79 -73 -28 -12 -85 -17 -223 -21 -216 -5 -230 -7 -260 -40 -13 -13 -27 -24 -30 -24 -4 0 -10 26 -14 57 -4 32 -9 72 -12 88 -14 97 -16 275 -3 311 7 22 14 41 14 44 4 18 50 100 57 100 4 0 8 7 8 15 0 8 4 15 8 15 4 0 23 25 41 55 18 30 38 55 44 55 6 0 7 3 4 6 -4 4 2 19 13 34 40 57 111 255 125 350 4 25 9 61 12 80 5 32 7 256 4 305 -4 52 -47 197 -77 261 -37 79 -94 166 -131 200 -13 12 -23 25 -21 27 2 2 -28 33 -67 67 -38 35 -71 67 -73 72 -2 4 -9 8 -17 8 -7 0 -18 7 -25 15 -11 13 -10 15 6 12 27 -4 136 -48 154 -62 16 -12 49 -28 63 -29 5 -1 14 -9 21 -18 7 -10 21 -18 30 -18 9 0 15 -4 14 -8 -4 -12 68 -73 76 -64 4 4 6 0 4 -8 -2 -8 3 -14 10 -12 8 1 11 -1 8 -6 -2 -4 10 -25 29 -45 19 -20 31 -37 28 -37 -3 0 1 -8 10 -18 21 -23 67 -112 67 -129 0 -7 4 -13 8 -13 5 0 9 -6 9 -12 1 -7 8 -39 17 -71 19 -69 20 -119 4 -163 -13 -36 -1 -76 32 -112 11 -11 27 -34 37 -50 10 -16 39 -54 65 -83 25 -30 57 -67 72 -84 39 -46 33 -6 -7 47 -18 24 -66 85 -105 137 -40 51 -72 98 -72 105 0 6 7 32 14 57 12 39 12 56 1 110 -74 348 -344 588 -735 654 -52 8 -108 18 -124 21 -19 4 -26 3 -22 -5z"/><path d="M1113 2390 c-162 -37 -300 -122 -371 -229 -34 -50 -48 -79 -84 -170 -21 -56 -32 -226 -20 -337 24 -234 55 -300 222 -463 165 -163 185 -195 197 -325 l6 -67 124 3 123 3 3 803 2 802 -60 -1 c-33 0 -97 -9 -142 -19z m167 -775 l0 -775 -94 0 -94 0 -7 53 c-14 101 -72 204 -157 277 -72 61 -151 139 -164 163 -60 102 -91 218 -99 367 -9 166 15 302 69 395 15 25 28 48 29 52 3 10 102 113 109 113 3 0 34 16 67 34 34 19 61 33 61 31 0 -2 17 3 37 12 32 13 193 50 231 52 9 1 12 -160 12 -774z"/><path d="M1564 2355 c6 -19 14 -35 18 -35 4 0 5 -7 2 -15 -4 -9 -20 -15 -43 -15 -30 -1 -33 -2 -18 -11 24 -14 68 -8 80 12 7 11 5 28 -8 57 -24 53 -47 58 -31 7z"/><path d="M1454 2315 c-18 -15 -23 -24 -14 -24 21 -1 65 35 53 42 -5 3 -22 -5 -39 -18z"/><path d="M1653 2290 c-1 -38 2 -50 13 -50 10 0 14 12 14 40 0 37 2 40 28 41 l27 1 -25 8 c-50 16 -55 13 -57 -40z"/><path d="M1769 2254 c18 -8 35 -24 38 -34 3 -11 12 -20 19 -20 9 0 14 -11 14 -30 0 -32 17 -41 27 -14 3 8 -4 28 -16 44 -11 16 -21 33 -21 38 0 12 -46 32 -73 31 -18 0 -16 -3 12 -15z"/><path d="M1679 2194 c29 -36 27 -70 -5 -91 -21 -14 -29 -14 -46 -4 -28 17 -32 9 -11 -28 20 -35 38 -42 28 -11 -5 16 -2 20 17 20 13 0 29 5 35 11 7 7 22 13 35 14 37 4 38 4 38 16 0 7 -10 9 -25 5 -23 -6 -25 -3 -25 24 0 17 -9 39 -20 50 -29 29 -45 24 -21 -6z"/><path d="M1458 2159 c-16 -6 -28 -15 -28 -21 0 -6 7 -7 18 -3 33 15 83 17 128 6 53 -14 71 -7 28 9 -43 17 -115 21 -146 9z"/><path d="M1498 2099 c16 -17 15 -42 -1 -36 -8 3 -20 1 -28 -4 -9 -6 0 -9 29 -9 60 0 94 -21 125 -77 14 -27 35 -57 47 -68 24 -22 26 -52 4 -84 -12 -17 -13 -26 -5 -34 18 -18 13 -45 -11 -61 -31 -22 -61 -20 -76 4 -7 11 -20 20 -29 20 -14 0 -13 -4 5 -23 25 -26 30 -77 8 -77 -7 0 -19 -7 -26 -15 -9 -11 -22 -14 -47 -9 -37 7 -73 -15 -73 -44 0 -12 5 -10 23 6 26 24 57 28 75 10 9 -9 17 -5 36 15 31 34 38 34 78 -2 28 -24 32 -35 31 -71 -1 -23 -7 -48 -14 -56 -16 -19 -4 -30 16 -14 8 7 15 25 15 41 0 27 3 29 35 29 20 0 49 -7 65 -15 28 -14 29 -14 42 13 8 16 26 31 47 38 19 6 29 14 23 18 -15 9 -78 -18 -89 -39 -8 -13 -14 -14 -37 -5 -15 5 -40 10 -54 10 -21 0 -30 7 -39 30 -6 16 -25 38 -42 47 -37 21 -42 53 -8 53 52 0 93 52 73 92 -11 20 -11 28 0 43 8 10 14 27 14 37 0 11 10 20 28 24 47 10 72 23 72 39 0 19 -14 19 -29 1 -17 -20 -58 -28 -82 -16 -11 6 -36 35 -54 65 -36 56 -69 85 -95 85 -8 0 -20 10 -25 22 -6 12 -17 24 -25 26 -12 4 -13 2 -2 -9z"/><path d="M1797 2103 c-4 -3 -4 -23 -1 -43 3 -21 1 -47 -5 -58 -9 -18 -6 -23 24 -40 73 -44 109 -178 65 -250 -17 -28 -62 -63 -95 -76 -5 -2 -7 -7 -3 -11 11 -12 46 5 79 37 l31 31 31 -33 c21 -22 32 -29 35 -20 3 8 -9 26 -25 41 -21 18 -28 31 -22 40 5 8 9 37 9 65 0 54 15 74 65 87 14 3 10 5 -11 6 -16 0 -35 -4 -42 -11 -6 -6 -13 -10 -14 -7 -2 2 -13 19 -26 37 -22 32 -23 33 -5 63 18 31 31 33 77 14 14 -6 18 -5 14 6 -2 7 -21 18 -41 22 -25 6 -37 15 -37 26 0 24 -28 61 -47 61 -15 0 -15 -2 0 -17 23 -26 30 -65 17 -98 l-11 -29 -21 22 c-17 17 -21 31 -19 76 2 50 -7 74 -22 59z"/><path d="M1907 2083 c-12 -11 -8 -23 8 -23 8 0 15 7 15 15 0 16 -12 20 -23 8z"/><path d="M1490 1973 c0 -5 13 -17 29 -27 27 -19 28 -21 14 -43 -11 -16 -14 -37 -10 -63 5 -37 3 -40 -18 -40 -25 0 -74 -34 -63 -45 3 -4 20 3 36 15 25 18 38 21 69 15 l38 -7 -22 22 c-39 36 -27 108 18 117 35 7 38 23 5 23 -13 0 -35 9 -49 20 -26 20 -47 26 -47 13z"/><path d="M1445 1870 c-3 -5 1 -10 9 -10 9 0 16 5 16 10 0 6 -4 10 -9 10 -6 0 -13 -4 -16 -10z"/><path d="M1985 1810 c-3 -5 1 -10 9 -10 8 0 18 5 21 10 3 6 -1 10 -9 10 -8 0 -18 -4 -21 -10z"/><path d="M1960 1773 c0 -4 9 -17 21 -29 11 -12 23 -40 26 -61 4 -32 0 -45 -22 -71 -15 -18 -25 -36 -21 -39 9 -10 47 29 62 64 8 17 18 34 24 38 16 10 12 28 -5 21 -11 -4 -19 3 -26 22 -16 41 -59 82 -59 55z"/><path d="M1961 1498 c-24 -37 -37 -48 -65 -54 -47 -8 -56 -24 -14 -24 26 0 42 10 83 55 31 33 60 55 73 55 11 0 23 4 26 9 3 5 -12 8 -34 7 -36 -1 -43 -5 -69 -48z"/><path d="M1440 1510 c0 -13 88 -52 104 -47 6 2 -13 16 -43 31 -63 30 -61 29 -61 16z"/><path d="M2000 1491 c0 -11 4 -23 10 -26 19 -12 -18 -63 -55 -75 -29 -10 -33 -14 -25 -30 12 -22 -11 -106 -40 -143 -24 -30 -104 -52 -155 -43 -19 4 -48 18 -64 31 -39 34 -54 32 -33 -4 22 -39 5 -81 -33 -81 -19 0 -28 -8 -39 -34 -8 -19 -23 -39 -34 -45 -26 -14 -87 -14 -113 -1 -12 7 -19 7 -19 1 0 -17 36 -31 77 -31 48 0 100 31 109 65 5 19 11 24 24 20 23 -7 63 42 56 68 -3 14 -1 17 12 11 34 -16 148 -16 186 0 30 13 42 27 67 81 19 39 29 74 26 88 -4 17 2 27 26 42 18 11 36 30 42 42 5 13 20 23 35 25 14 2 25 9 25 18 0 10 -8 14 -28 12 -18 -2 -29 2 -33 12 -9 22 -24 20 -24 -3z"/><path d="M1587 1425 c5 -32 4 -35 -19 -35 -35 0 -109 -32 -86 -37 9 -3 26 0 37 6 11 6 39 8 65 5 32 -5 59 -2 90 10 44 17 70 46 41 46 -8 0 -15 -4 -15 -8 0 -13 -47 -32 -77 -32 -21 0 -23 2 -13 15 15 18 5 65 -15 65 -10 0 -12 -9 -8 -35z"/><path d="M1420 1425 c0 -9 6 -12 15 -9 8 4 15 10 15 15 0 5 -7 9 -15 9 -8 0 -15 -7 -15 -15z"/><path d="M1807 1434 c-3 -3 1 -24 9 -46 21 -61 -15 -105 -65 -78 -16 8 -27 6 -53 -10 -49 -30 -132 -27 -180 5 -40 27 -48 30 -48 17 0 -5 12 -15 26 -22 44 -24 49 -46 17 -76 l-28 -26 30 4 c24 2 31 8 33 31 3 26 6 27 58 27 30 0 70 6 89 14 20 9 49 12 68 9 26 -4 40 0 62 19 27 24 28 25 15 76 -12 51 -21 67 -33 56z"/><path d="M1975 1251 c-21 -5 -25 -8 -14 -13 20 -8 69 2 69 13 0 10 -10 10 -55 0z"/><path d="M1406 1115 c-3 -9 0 -15 9 -15 8 0 15 7 15 15 0 8 -4 15 -9 15 -5 0 -11 -7 -15 -15z"/><path d="M1770 1101 c0 -5 17 -23 37 -39 38 -30 38 -30 19 -51 -12 -14 -31 -21 -53 -21 -20 0 -32 -4 -28 -10 10 -16 72 -12 89 6 9 8 16 23 16 33 0 14 6 17 30 13 18 -3 30 0 30 7 0 6 -13 11 -30 11 -18 0 -42 11 -63 30 -36 31 -47 36 -47 21z"/><path d="M1674 1058 c22 -31 20 -64 -6 -87 -26 -25 -54 -11 -38 19 14 26 12 40 -5 40 -10 0 -15 -10 -15 -29 0 -28 -9 -39 -66 -79 -17 -11 -16 -12 11 -7 17 4 37 13 46 21 14 13 19 12 43 -7 20 -16 30 -19 39 -10 8 8 6 11 -8 11 -16 0 -15 3 8 28 15 15 27 38 27 50 0 18 6 22 29 22 17 0 33 5 36 10 4 6 -6 10 -22 10 -16 0 -38 7 -49 15 -31 23 -48 19 -30 -7z"/><path d="M1416 975 c7 -17 36 -35 56 -35 13 1 -10 22 -44 41 -14 7 -16 6 -12 -6z"/><path d="M1440 850 c0 -5 7 -10 15 -10 8 0 15 5 15 10 0 6 -7 10 -15 10 -8 0 -15 -4 -15 -10z"/><path d="M1060 683 l0 -28 287 2 288 2 3 26 3 25 -290 0 -291 0 0 -27z"/><path d="M1085 535 l0 -25 258 0 257 0 0 25 0 25 -257 0 -258 0 0 -25z"/><path d="M1120 385 l0 -25 220 0 220 0 0 25 0 25 -220 0 -220 0 0 -25z"/></g></g></svg>